<svg width="213" height="34" viewBox="0 0 213 34" fill="none" xmlns="http://www.w3.org/2000/svg">
<g clip-path="url(#clip0_3519_354)">
<path d="M32.8789 23.7895V23.4585H33.0113V23.3912H32.6726V23.4585H32.8061V23.7895H32.8789ZM33.5408 23.7895V23.3923H33.4371L33.3179 23.6648L33.1933 23.3923H33.0896V23.7895H33.1624V23.4894L33.2727 23.7476H33.3488L33.4591 23.4894V23.7895H33.5408ZM16.4023 25.7652C16.4817 25.8347 16.5656 25.9009 16.6494 25.9693C15.1087 26.9933 13.3192 27.5803 11.4713 27.6677C9.62343 27.7552 7.78645 27.3397 6.156 26.4657C4.52556 25.5917 3.16271 24.2918 2.21261 22.7045C1.26251 21.1171 0.760742 19.3018 0.760742 17.4519C0.760742 15.602 1.26251 13.7867 2.21261 12.1993C3.16271 10.612 4.52556 9.31211 6.156 8.43808C7.78645 7.56405 9.62343 7.14862 11.4713 7.23604C13.3192 7.32346 15.1087 7.91045 16.6494 8.93449C16.5656 9.00179 16.4817 9.06908 16.4023 9.13858C15.212 10.172 14.2574 11.4491 13.6033 12.8833C12.9491 14.3175 12.6106 15.8755 12.6106 17.4519C12.6106 19.0283 12.9491 20.5862 13.6033 22.0205C14.2574 23.4547 15.212 24.7317 16.4023 25.7652ZM23.6279 7.22462C21.6143 7.22231 19.6452 7.81737 17.9699 8.93449C18.0537 9.00179 18.1375 9.06908 18.2181 9.13858C19.4081 10.1722 20.3623 11.4493 21.0162 12.8835C21.6702 14.3178 22.0086 15.8756 22.0086 17.4519C22.0086 19.0281 21.6702 20.586 21.0162 22.0202C20.3623 23.4544 19.4081 24.7315 18.2181 25.7652C18.1375 25.8347 18.0537 25.9009 17.9699 25.9693C19.2991 26.8528 20.8167 27.413 22.4012 27.6049C23.9857 27.7969 25.5932 27.6153 27.095 27.0748C28.5967 26.5342 29.9511 25.6497 31.0498 24.4919C32.1485 23.3341 32.961 21.9353 33.4222 20.4073C33.8834 18.8793 33.9806 17.2645 33.706 15.6922C33.4314 14.1199 32.7926 12.6337 31.8407 11.3525C30.8888 10.0713 29.6503 9.03073 28.2242 8.31394C26.7981 7.59715 25.224 7.2241 23.6279 7.22462ZM17.308 9.41547C17.1771 9.51916 17.048 9.6258 16.9208 9.73538C15.816 10.6947 14.93 11.8801 14.3229 13.2113C13.7158 14.5426 13.4016 15.9887 13.4016 17.4519C13.4016 18.9151 13.7158 20.3612 14.3229 21.6925C14.93 23.0237 15.816 24.2091 16.9208 25.1684C17.0473 25.278 17.1763 25.3846 17.308 25.4883C17.4403 25.3846 17.5683 25.2776 17.6952 25.1684C18.8 24.2091 19.6859 23.0237 20.293 21.6925C20.9002 20.3612 21.2144 18.9151 21.2144 17.4519C21.2144 15.9887 20.9002 14.5426 20.293 13.2113C19.6859 11.8801 18.8 10.6947 17.6952 9.73538C17.5683 9.62506 17.4403 9.51475 17.308 9.41547Z" fill="#55595C"/>
</g>
<g clip-path="url(#clip1_3519_354)">
<path d="M69.879 15.5264C69.8602 17.0157 71.2028 17.843 72.2199 18.3405C73.2613 18.8469 73.6109 19.1723 73.6065 19.6246C73.5988 20.3185 72.7759 20.6252 72.0059 20.6362C70.6622 20.6572 69.8812 20.2744 69.2601 19.9842L68.7759 22.249C69.3991 22.5358 70.553 22.7862 71.7544 22.8006C74.5619 22.8006 76.3997 21.4139 76.4096 19.265C76.4207 16.5369 72.6369 16.3858 72.6589 15.1668C72.6678 14.7961 73.0208 14.4023 73.7941 14.3019C74.6985 14.2152 75.6096 14.3749 76.4306 14.7641L76.9005 12.5722C76.1005 12.2716 75.2532 12.1162 74.3986 12.1133C71.751 12.1133 69.8955 13.5187 69.8757 15.533M81.4124 12.3052C81.1685 12.3028 80.9295 12.3739 80.7267 12.5093C80.5238 12.6447 80.3664 12.838 80.2751 13.0642L76.2662 22.6384H79.0726L79.6308 21.094H83.0605L83.3848 22.6384H85.8581L83.6992 12.3008H81.4157M81.8084 15.094L82.6181 18.9749H80.4008L81.8084 15.094ZM66.4747 12.3008L64.264 22.6384H66.9391L69.1454 12.3008H66.4769M62.521 12.3008L59.7367 19.3345L58.6104 13.3521C58.5641 13.0583 58.4144 12.7908 58.1882 12.5976C57.9621 12.4044 57.6744 12.2984 57.377 12.2986H52.8277L52.7637 12.5998C53.698 12.8027 54.7593 13.1304 55.4024 13.4823C55.7951 13.6952 55.9076 13.8827 56.0367 14.3902L58.1691 22.6384H60.9965L65.3285 12.3008H62.521Z" fill="#55595C"/>
</g>
<path d="M138.881 18.6581C138.729 18.7541 138.568 18.8362 138.4 18.9062C138.173 18.9976 137.958 19.0455 137.759 19.0455C137.454 19.0455 137.22 19.0024 137.061 18.9101C136.902 18.8226 136.819 18.6705 136.822 18.4527C136.822 18.2013 136.88 18.0062 137 17.8533C137.121 17.7061 137.301 17.5876 137.524 17.4993C137.745 17.4241 138.018 17.3622 138.333 17.3178C138.613 17.2825 139.166 17.2188 139.237 17.2183C139.308 17.2177 139.355 17.1787 139.323 17.3674C139.309 17.4493 139.149 18.1053 139.076 18.4036C139.055 18.493 138.936 18.6232 138.881 18.6581ZM141.053 14.0476C140.587 13.7875 139.858 13.6561 138.861 13.6561C138.367 13.6561 137.872 13.6957 137.374 13.7729C137.009 13.8288 136.971 13.8381 136.744 13.8875C136.278 13.989 136.206 14.4563 136.206 14.4563L136.056 15.0727C135.971 15.4669 136.195 15.4506 136.296 15.4201C136.499 15.3586 136.61 15.2975 137.025 15.2033C137.423 15.1131 137.843 15.0456 138.178 15.0483C138.669 15.0483 139.042 15.1022 139.291 15.2058C139.539 15.3142 139.662 15.4987 139.662 15.7627C139.663 15.8255 139.665 15.8847 139.642 15.9365C139.622 15.9848 139.582 16.0315 139.465 16.0474C138.764 16.0891 138.261 16.153 137.655 16.2414C137.057 16.3256 136.533 16.4699 136.096 16.6697C135.63 16.8765 135.281 17.1533 135.04 17.504C134.806 17.8564 134.689 18.283 134.688 18.7856C134.688 19.2606 134.859 19.648 135.189 19.9488C135.523 20.2456 135.958 20.3926 136.484 20.3926C136.812 20.3903 137.07 20.3666 137.254 20.3205C137.436 20.2745 137.635 20.2091 137.845 20.118C138.003 20.0524 138.172 19.9575 138.351 19.8384C138.53 19.7188 138.654 19.634 138.813 19.5298L138.819 19.5397L138.774 19.7372C138.774 19.7391 138.771 19.7401 138.771 19.742L138.773 19.7457C138.722 19.9837 138.865 20.1816 139.1 20.2049L139.103 20.2091H139.124L139.125 20.2101C139.282 20.2101 139.819 20.2099 140.07 20.2091H140.245C140.256 20.2091 140.258 20.2056 140.262 20.2029C140.503 20.1734 140.734 19.9773 140.788 19.742L141.684 15.8727C141.705 15.7817 141.721 15.6766 141.731 15.5557C141.742 15.4335 141.755 15.333 141.751 15.2603C141.754 14.7127 141.518 14.3079 141.053 14.0476Z" fill="#55595C"/>
<mask id="mask0_3519_354" style="mask-type:luminance" maskUnits="userSpaceOnUse" x="104" y="11" width="46" height="13">
<path d="M104.767 11.7378H149.352V23.168H104.767V11.7378Z" fill="white"/>
</mask>
<g mask="url(#mask0_3519_354)">
<path d="M125.631 13.7408C125.368 13.7408 125.023 13.9536 124.86 14.2108C124.86 14.2108 123.101 17.2265 122.928 17.5279C122.834 17.6899 122.739 17.5869 122.723 17.5266C122.71 17.4534 122.178 14.2306 122.178 14.2306C122.118 13.9712 121.847 13.7484 121.508 13.7495L120.411 13.7511C120.147 13.7511 119.982 13.9629 120.041 14.2189C120.041 14.2189 120.879 18.9713 121.043 20.0891C121.124 20.7073 121.034 20.8169 121.034 20.8169L119.947 22.7122C119.788 22.9691 119.875 23.1797 120.139 23.1797L121.41 23.1787C121.673 23.1787 122.021 22.9691 122.178 22.7117L127.068 14.4414C127.068 14.4414 127.536 13.7348 127.104 13.7408C126.81 13.7449 125.631 13.7408 125.631 13.7408Z" fill="#55595C"/>
<path d="M112.845 12.9671C112.693 12.6695 112.464 12.4278 112.172 12.2453C111.869 12.0585 111.517 11.9297 111.106 11.8521C110.693 11.778 110.211 11.7417 109.658 11.7367L107.095 11.7386C106.829 11.7417 106.568 11.9506 106.507 12.2065L104.779 19.7181C104.719 19.9751 104.886 20.1875 105.151 20.1875H106.378C106.644 20.1875 106.907 19.9807 106.966 19.7181L107.389 17.8953C107.446 17.6404 107.708 17.4294 107.974 17.4294H108.325C109.826 17.428 110.991 17.1208 111.828 16.5061C112.663 15.8927 113.081 15.0794 113.079 14.0737C113.081 13.632 113.005 13.2623 112.845 12.9671ZM110.195 15.4214C109.824 15.692 109.311 15.8276 108.646 15.8276H108.345C108.079 15.8276 107.912 15.6173 107.97 15.3589L108.34 13.7666C108.396 13.51 108.661 13.2972 108.926 13.2997L109.328 13.2972C109.797 13.2972 110.154 13.3775 110.394 13.5373C110.632 13.6927 110.752 13.9381 110.748 14.2682C110.755 14.7652 110.566 15.15 110.195 15.4214Z" fill="#55595C"/>
</g>
<path d="M135.132 12.9962C134.979 12.6986 134.748 12.4589 134.456 12.2723C134.156 12.0862 133.8 11.9563 133.388 11.8806C132.981 11.8091 132.497 11.7683 131.945 11.767L129.376 11.7683C129.112 11.7728 128.853 11.9805 128.791 12.2362L127.065 19.7501C127.002 20.0054 127.174 20.2182 127.433 20.2168L128.666 20.2145C128.927 20.2168 129.193 20.0054 129.255 19.7501L129.671 17.9266C129.73 17.6711 129.995 17.457 130.261 17.4608H130.611C132.115 17.4608 133.28 17.152 134.114 16.5373C134.947 15.9195 135.366 15.1091 135.366 14.1012C135.363 13.6611 135.288 13.2904 135.132 12.9962ZM132.482 15.4538C132.115 15.7213 131.598 15.8555 130.934 15.8555H130.629C130.364 15.8586 130.194 15.6449 130.256 15.3888L130.625 13.794C130.68 13.5418 130.948 13.3271 131.208 13.3292L131.612 13.3271C132.083 13.3292 132.435 13.408 132.678 13.5647C132.918 13.7232 133.034 13.9691 133.036 14.2966C133.037 14.796 132.852 15.1801 132.482 15.4538Z" fill="#55595C"/>
<path d="M116.59 18.6522C116.438 18.7482 116.277 18.8299 116.108 18.9001C115.882 18.9912 115.666 19.0395 115.468 19.0395C115.163 19.0395 114.928 18.9961 114.769 18.9043C114.611 18.8165 114.527 18.6644 114.53 18.4464C114.53 18.1956 114.589 18 114.709 17.8472C114.83 17.6998 115.009 17.5811 115.232 17.493C115.454 17.4175 115.727 17.3564 116.041 17.312C116.321 17.2767 116.875 17.2131 116.946 17.2121C117.016 17.2119 117.063 17.1724 117.032 17.3611C117.018 17.4431 116.858 18.0994 116.785 18.3975C116.763 18.4873 116.644 18.6175 116.59 18.6522ZM118.762 14.0416C118.296 13.7815 117.567 13.6502 116.569 13.6502C116.076 13.6502 115.58 13.6894 115.083 13.7668C114.717 13.8224 114.68 13.8318 114.453 13.8812C113.986 13.9831 113.914 14.4501 113.914 14.4501L113.764 15.0668C113.68 15.4609 113.904 15.4446 114.004 15.414C114.207 15.3525 114.318 15.2916 114.734 15.1971C115.131 15.1073 115.551 15.04 115.886 15.0423C116.378 15.0423 116.751 15.0959 116.999 15.1995C117.248 15.3079 117.37 15.4929 117.37 15.7567C117.372 15.8194 117.373 15.8789 117.351 15.9302C117.33 15.979 117.291 16.0254 117.173 16.0411C116.473 16.0834 115.97 16.1472 115.363 16.2355C114.765 16.3197 114.242 16.464 113.804 16.6636C113.338 16.8705 112.989 17.1477 112.749 17.4982C112.514 17.8503 112.397 18.277 112.396 18.7798C112.396 19.2545 112.567 19.6422 112.897 19.9427C113.232 20.2395 113.666 20.3867 114.192 20.3867C114.521 20.3844 114.778 20.3603 114.963 20.3147C115.145 20.2682 115.344 20.2032 115.553 20.1122C115.711 20.0465 115.88 19.9512 116.059 19.8323C116.238 19.713 116.363 19.6281 116.522 19.5239L116.527 19.5336L116.483 19.7309C116.482 19.7328 116.48 19.734 116.48 19.7363L116.482 19.7394C116.43 19.978 116.573 20.1758 116.809 20.1987L116.812 20.2032H116.833L116.833 20.2047C116.99 20.2047 117.527 20.2038 117.778 20.2032H117.953C117.965 20.2032 117.967 20.1993 117.97 20.1968C118.212 20.1665 118.442 19.9708 118.496 19.7363L119.393 15.8667C119.413 15.7759 119.43 15.6708 119.439 15.55C119.451 15.4272 119.464 15.3271 119.46 15.2547C119.462 14.7066 119.227 14.3018 118.762 14.0416Z" fill="#55595C"/>
<path d="M145.286 11.8284H144.187C144.187 11.8284 144.186 11.8286 144.186 11.8286L144.185 11.8284C143.934 11.8284 143.679 12.021 143.607 12.266C143.604 12.2759 143.599 12.2854 143.597 12.2957C143.597 12.2957 143.571 12.4152 143.526 12.6218L142.017 19.4603C141.982 19.6149 141.959 19.7157 141.952 19.7419L141.955 19.7456C141.902 19.9846 142.046 20.1824 142.282 20.2044L142.285 20.209H143.425C143.675 20.209 143.928 20.0183 144.002 19.7763C144.005 19.7646 144.011 19.7536 144.014 19.7419L145.659 12.2953L145.657 12.2945C145.713 12.0397 145.549 11.8284 145.286 11.8284Z" fill="#55595C"/>
<path d="M147.365 13.3446C147.328 13.3545 147.287 13.3628 147.242 13.3692C147.197 13.3754 147.157 13.3789 147.123 13.3789C147 13.3789 146.908 13.3459 146.844 13.2804C146.781 13.2148 146.749 13.1095 146.749 12.9648V12.3297H146.613V12.1604H146.749V11.8172H146.95V12.1604H147.365V12.3297H146.95V12.874C146.95 12.9366 146.952 12.9857 146.954 13.021C146.958 13.0565 146.967 13.0893 146.985 13.1199C147 13.1485 147.022 13.1692 147.049 13.1824C147.077 13.1958 147.119 13.2024 147.175 13.2024C147.208 13.2024 147.242 13.1975 147.278 13.1878C147.313 13.1783 147.339 13.1702 147.355 13.1638H147.365V13.3446Z" fill="#55595C"/>
<path d="M149.352 13.3555H149.151V12.6751C149.151 12.6239 149.149 12.5742 149.144 12.5265C149.139 12.4786 149.129 12.4406 149.115 12.412C149.098 12.3814 149.075 12.3581 149.044 12.3426C149.013 12.3269 148.969 12.3191 148.911 12.3191C148.855 12.3191 148.799 12.3331 148.742 12.3614C148.686 12.3895 148.63 12.4252 148.574 12.4687C148.576 12.4852 148.577 12.5042 148.579 12.5261C148.58 12.5478 148.581 12.5692 148.581 12.5907V13.3555H148.38V12.6751C148.38 12.6223 148.377 12.5723 148.373 12.5249C148.368 12.4774 148.358 12.4396 148.344 12.4111C148.327 12.3804 148.303 12.3575 148.273 12.342C148.242 12.3267 148.198 12.3191 148.14 12.3191C148.085 12.3191 148.031 12.3327 147.975 12.3597C147.92 12.3868 147.865 12.4212 147.81 12.4633V13.3555H147.608V12.1607H147.81V12.2933C147.873 12.2412 147.935 12.2006 147.997 12.1713C148.06 12.1424 148.126 12.1275 148.197 12.1275C148.278 12.1275 148.347 12.1446 148.404 12.1787C148.46 12.2132 148.503 12.2604 148.531 12.3211C148.612 12.2526 148.686 12.2031 148.753 12.1729C148.82 12.1428 148.892 12.1275 148.968 12.1275C149.099 12.1275 149.196 12.1674 149.258 12.2466C149.321 12.3263 149.352 12.4373 149.352 12.58V13.3555Z" fill="#55595C"/>
<g clip-path="url(#clip2_3519_354)">
<path fill-rule="evenodd" clip-rule="evenodd" d="M169.84 7.4375H168.71V26.5107H169.84V7.4375ZM170.102 7.4375H170.735V26.5107H170.102V7.4375ZM171.651 7.4375H173.687V15.8613H171.651V7.4375ZM209.544 15.8613V7.4375H209.057V15.8613H209.544ZM208.783 15.8613V7.4375H208.151V15.8613H208.783ZM207.062 15.8613V7.4375H205.932V15.8613H207.062ZM205.381 15.8613V7.4375H204.752V15.8613H205.381ZM204.108 15.8613V7.4375H202.072V15.8613H204.108ZM201.523 15.8613V7.4375H200.89V15.8613H201.523ZM200.627 15.8613V7.4375H199.497V15.8613H200.627ZM199.068 15.8613V7.4375H198.581V15.8613H199.068ZM198.307 15.8613V7.4375H197.675V15.8613H198.307ZM196.837 15.8613V7.4375H196.205V15.8613H196.837ZM195.942 15.8613V7.4375H194.812V15.8613H195.942ZM194.378 15.8613V7.4375H193.892V15.8613H194.378ZM193.619 15.8613V7.4375H192.986V15.8613H193.619ZM191.896 15.8613V7.4375H190.769V15.8613H191.896ZM189.968 15.8613V7.4375H189.482V15.8613H189.968ZM189.205 15.8613V7.4375H188.577V15.8613H189.205ZM187.487 15.8613V7.4375H186.357V15.8613H187.487ZM185.806 15.8613V7.4375H185.174V15.8613H185.806ZM184.534 15.8613V7.4375H182.498V15.8613H184.534ZM181.578 15.8613V7.4375H180.949V15.8613H181.578ZM180.686 15.8613V7.4375H179.556V15.8613H180.686ZM179.122 15.8613V7.4375H178.635V15.8613H179.122ZM178.363 15.8613V7.4375H177.73V15.8613H178.363ZM176.641 15.8613V7.4375H175.51V15.8613H176.641ZM174.959 15.8613V7.4375H174.33V15.8613H174.959ZM211.475 7.4375H210.344V26.5107H211.475V7.4375Z" fill="#55595C"/>
<path fill-rule="evenodd" clip-rule="evenodd" d="M171.741 16.472V26.1434L175.432 26.1359C175.958 26.1464 176.483 26.0922 176.996 25.975C177.376 25.8855 177.734 25.7228 178.052 25.4959C178.358 25.2584 178.602 24.9501 178.763 24.5976C178.955 24.2038 179.054 23.7708 179.051 23.3325C179.063 22.8055 178.897 22.2899 178.579 21.8691C178.238 21.4357 177.763 21.1266 177.228 20.9896C177.643 20.7972 177.995 20.4908 178.242 20.1063C178.462 19.7563 178.579 19.3516 178.579 18.9386C178.579 18.486 178.449 18.043 178.205 17.6622C177.954 17.261 177.586 16.9472 177.15 16.764C176.583 16.5482 175.978 16.4489 175.372 16.472H171.741ZM175.11 20.5292H173.032V17.5986H174.964C175.458 17.5778 175.953 17.6231 176.435 17.7334C176.708 17.8163 176.942 17.9959 177.093 18.2386C177.251 18.4937 177.331 18.7886 177.325 19.0882C177.337 19.3895 177.25 19.6864 177.078 19.9341C176.891 20.1755 176.627 20.3458 176.33 20.4169C175.93 20.5082 175.52 20.5459 175.11 20.5292ZM175.435 25.0205H173.025L173.021 25.0093V21.6745H175.267C175.744 21.6566 176.221 21.7108 176.682 21.8354C176.993 21.9335 177.264 22.1306 177.453 22.3969C177.641 22.6746 177.738 23.0045 177.73 23.3401C177.739 23.6284 177.674 23.9144 177.543 24.1709C177.43 24.3896 177.262 24.5752 177.056 24.7099C176.826 24.8455 176.572 24.9345 176.307 24.9719C176.019 25.0128 175.727 25.0291 175.435 25.0205ZM181.305 19.7621C180.581 20.3859 180.219 21.3453 180.219 22.6403H180.238C180.238 23.8193 180.541 24.7251 181.147 25.3501C181.455 25.665 181.826 25.9117 182.236 26.0742C182.645 26.2367 183.084 26.3113 183.524 26.2933C184.115 26.2981 184.698 26.1512 185.216 25.8666C185.713 25.5927 186.119 25.1771 186.38 24.6726C186.681 24.0072 186.819 23.2798 186.784 22.5505C186.812 22.0748 186.746 21.5982 186.589 21.1483C186.431 20.6986 186.186 20.2847 185.867 19.9306C185.561 19.6172 185.193 19.3711 184.786 19.2081C184.379 19.0451 183.943 18.9686 183.505 18.9836C182.701 18.9629 181.917 19.2401 181.305 19.7621ZM182.023 24.6502C181.631 24.2085 181.436 23.5385 181.436 22.6403C181.38 21.9292 181.584 21.2222 182.008 20.6491C182.193 20.4342 182.423 20.2631 182.682 20.1485C182.941 20.0339 183.222 19.9786 183.505 19.9866C183.785 19.9813 184.062 20.0387 184.317 20.1546C184.571 20.2706 184.797 20.4421 184.976 20.6567C185.404 21.2115 185.615 21.9036 185.568 22.6029C185.57 23.5186 185.374 24.201 184.98 24.6502C184.796 24.8608 184.568 25.0296 184.313 25.1452C184.058 25.2609 183.782 25.3208 183.502 25.3208C183.222 25.3208 182.945 25.2609 182.69 25.1452C182.435 25.0296 182.208 24.8608 182.023 24.6502ZM188.15 26.1434V16.4721H189.341V26.1434H188.15ZM195.983 23.8778L195.962 23.8751L195.988 23.864L195.983 23.8778ZM195.239 24.9643C195.59 24.6846 195.85 24.3061 195.983 23.8778L197.193 24.0249C197.037 24.6861 196.659 25.2739 196.122 25.6904C195.538 26.1027 194.834 26.3107 194.12 26.2818C193.671 26.3045 193.223 26.2318 192.804 26.0685C192.385 25.9054 192.006 25.6553 191.691 25.3349C191.055 24.6037 190.733 23.652 190.793 22.685C190.793 21.5097 191.092 20.5965 191.699 19.949C191.999 19.6268 192.364 19.3727 192.771 19.2041C193.178 19.0357 193.616 18.9565 194.056 18.9722C194.485 18.9588 194.911 19.0374 195.306 19.2026C195.701 19.3679 196.056 19.6161 196.347 19.9302C196.938 20.5666 197.234 21.4623 197.234 22.6176V22.932H192.002C192.001 23.5792 192.233 24.2051 192.657 24.6948C192.843 24.8943 193.069 25.0521 193.321 25.1578C193.572 25.2637 193.843 25.315 194.116 25.3086C194.518 25.3224 194.914 25.2011 195.239 24.9643ZM195.976 21.9701H192.088C192.099 21.4209 192.318 20.8965 192.702 20.503C192.881 20.3272 193.093 20.1893 193.327 20.0974C193.56 20.0054 193.809 19.9614 194.06 19.9677C194.341 19.9616 194.62 20.0206 194.874 20.14C195.129 20.2595 195.352 20.4362 195.527 20.6563C195.804 21.0402 195.96 21.4973 195.976 21.9701ZM201.273 25.0844L201.434 26.1325C201.14 26.1983 200.84 26.2335 200.539 26.2372C200.194 26.2559 199.85 26.1864 199.54 26.0352C199.318 25.915 199.142 25.7256 199.038 25.4961C198.914 25.0394 198.866 24.5651 198.896 24.0927V20.0542H198.017V19.1334H198.896V17.4006L200.083 16.6857V19.1334H201.273V20.0542H200.083V24.1713C200.069 24.3916 200.091 24.6126 200.146 24.8262C200.188 24.9227 200.258 25.0038 200.348 25.0583C200.473 25.1219 200.613 25.1515 200.753 25.1443C200.927 25.1394 201.101 25.1231 201.273 25.0957V25.0844ZM203.08 19.7621C202.359 20.3859 201.999 21.3453 201.999 22.6403V22.6515C201.999 23.8305 202.302 24.7362 202.908 25.3613C203.216 25.6762 203.587 25.923 203.996 26.0855C204.406 26.2478 204.845 26.3225 205.285 26.3045C205.876 26.3093 206.458 26.1625 206.977 25.8777C207.482 25.6028 207.894 25.1831 208.159 24.6726C208.46 24.0072 208.599 23.2798 208.564 22.5505C208.592 22.0748 208.526 21.5982 208.368 21.1483C208.211 20.6986 207.965 20.2847 207.646 19.9306C207.34 19.6172 206.972 19.3711 206.566 19.2081C206.159 19.0451 205.723 18.9686 205.285 18.9836C204.479 18.9634 203.694 19.2406 203.08 19.7621ZM203.803 24.6502C203.411 24.2085 203.215 23.5385 203.215 22.6403L203.2 22.6552C203.146 21.9374 203.354 21.2241 203.788 20.6491C203.972 20.4342 204.202 20.2631 204.461 20.1485C204.72 20.0339 205.002 19.9786 205.285 19.9866C205.564 19.9813 205.842 20.0387 206.096 20.1546C206.351 20.2706 206.576 20.4421 206.756 20.6567C207.184 21.2115 207.394 21.9036 207.347 22.6029C207.347 23.5186 207.151 24.201 206.759 24.6502C206.575 24.8608 206.348 25.0296 206.093 25.1452C205.838 25.2609 205.561 25.3208 205.281 25.3208C205.001 25.3208 204.724 25.2609 204.469 25.1452C204.214 25.0296 203.987 24.8608 203.803 24.6502Z" fill="#55595C"/>
</g>
<defs>
<clipPath id="clip0_3519_354">
<rect width="33.0944" height="33.0944" fill="white" transform="translate(0.760742 0.90625)"/>
</clipPath>
<clipPath id="clip1_3519_354">
<rect width="33.0944" height="33.0944" fill="white" transform="translate(52.7637 0.90625)"/>
</clipPath>
<clipPath id="clip2_3519_354">
<rect width="43.9788" height="20.2979" fill="white" transform="translate(168.261 7.30469)"/>
</clipPath>
</defs>
</svg>
